<?xml version="1.0" encoding="UTF-8"?>
<!DOCTYPE svg PUBLIC "-//W3C//DTD SVG 1.1//EN" "http://www.w3.org/Graphics/SVG/1.1/DTD/svg11.dtd">
<svg version="1.1" xmlns="http://www.w3.org/2000/svg" xmlns:xlink="http://www.w3.org/1999/xlink" x="0" y="0" width="1000" height="1000" viewBox="0, 0, 1000, 1000">
  <g id="Background">
    <rect x="0" y="0" width="1000" height="1000" fill="#000000" fill-opacity="0"/>
  </g>
  <g id="レイヤー_1">
    <path d="M720,344.353 L891,344.353 L891,411.353 L720,411.353 z M720,602.353 L891,602.353 L891,669.353 L720,669.353 z M606,867.353 L974,867.353 L974,936.353 L606,936.353 z M693,88.353 L927,88.353 L927,905.353 L866,905.353 L866,156.353 L752,156.353 L752,905.353 L693,905.353 z M106,291.353 L357,291.353 L357,354.353 L106,354.353 z M64,460.353 L372,460.353 L372,524.353 L64,524.353 z M80,591.353 L127,581.353 Q141,625.353 151,677.853 Q161,730.353 164,768.353 L114,780.353 Q113,741.353 103.5,689.353 Q94,637.353 80,591.353 z M51,866.353 Q113,854.353 197.5,835.853 Q282,817.353 371,797.353 L378,859.353 Q297,879.353 216,898.353 Q135,917.353 70,932.353 z M320,569.353 L371,580.353 Q361,624.353 350,672.853 Q339,721.353 328,756.353 L284,745.353 Q291,721.353 297.5,690.353 Q304,659.353 310.5,626.853 Q317,594.353 320,569.353 z M195,316.353 L257,316.353 L257,855.353 L195,864.353 z M193,42.353 L233,42.353 L233,58.353 L255,58.353 L255,77.353 Q230,135.353 186,208.853 Q142,282.353 74,349.353 Q69,342.353 60.5,332.853 Q52,323.353 43,314.853 Q34,306.353 26,302.353 Q67,263.353 99.5,218.353 Q132,173.353 155.5,127.353 Q179,81.353 193,42.353 z M206,42.353 L260,42.353 Q287,69.353 315,100.853 Q343,132.353 367,163.853 Q391,195.353 406,220.353 L356,276.353 Q342,251.353 319.5,218.353 Q297,185.353 270.5,151.353 Q244,117.353 219,93.353 L206,93.353 z" fill="#000000"/>
    <path d="M380.826,239.231 L638.317,239.231 L638.317,306.128 L380.826,306.128 z M497.635,54.28 L559.876,54.28 L559.876,272.679 L497.635,272.679 z M566.697,462.549 Q575.224,469.436 590.997,484.684 Q606.77,499.933 624.675,517.641 Q642.581,535.349 657.501,550.598 Q672.422,565.846 678.391,573.717 L640.875,633.727 Q632.349,620.938 617.855,602.246 Q603.36,583.555 586.734,563.879 Q570.108,544.203 555.187,526.987 Q540.266,509.771 530.887,498.949 z M616.149,239.231 L628.939,239.231 L640.875,236.279 L675.833,262.841 Q646.844,352.366 599.523,434.512 Q552.203,516.657 495.93,584.538 Q439.657,652.419 383.384,698.657 Q379.974,687.836 374.005,675.046 Q368.037,662.257 362.069,649.96 Q356.1,637.663 350.132,631.76 Q403.847,591.425 455.431,531.414 Q507.014,471.403 549.645,399.587 Q592.276,327.771 616.149,253.987 z M497.635,534.365 L559.876,446.809 L559.876,957.392 L497.635,957.392 z" fill="#000000"/>
  </g>
</svg>
