<?xml version="1.0" encoding="UTF-8"?>
<!DOCTYPE svg PUBLIC "-//W3C//DTD SVG 1.1//EN" "http://www.w3.org/Graphics/SVG/1.1/DTD/svg11.dtd">
<svg version="1.1" xmlns="http://www.w3.org/2000/svg" xmlns:xlink="http://www.w3.org/1999/xlink" x="0" y="0" width="1000" height="1000" viewBox="0, 0, 1000, 1000">
  <g id="Background">
    <rect x="0" y="0" width="1000" height="1000" fill="#000000" fill-opacity="0"/>
  </g>
  <g id="レイヤー_1">
    <path d="M252.5,498.5 L310.5,498.5 L310.5,889.5 Q310.5,911.5 305,924.5 Q299.5,937.5 285.5,945.5 Q270.5,951.5 247,953.5 Q223.5,955.5 188.5,954.5 Q186.5,943.5 181.5,928 Q176.5,912.5 170.5,901.5 Q195.5,902.5 214.5,902.5 Q233.5,902.5 240.5,901.5 Q252.5,900.5 252.5,889.5 z M101.5,498.5 L158.5,498.5 L158.5,672.5 Q158.5,716.5 153,767.5 Q147.5,818.5 131,868 Q114.5,917.5 81.5,956.5 Q76.5,951.5 67.5,945 Q58.5,938.5 49,932 Q39.5,925.5 32.5,923.5 Q63.5,886.5 78,842.5 Q92.5,798.5 97,754.5 Q101.5,710.5 101.5,671.5 z M679.5,498.5 L734.5,498.5 L734.5,672.5 Q734.5,718.5 727.5,770 Q720.5,821.5 700,871.5 Q679.5,921.5 638.5,961.5 Q634.5,955.5 626,949 Q617.5,942.5 608,936.5 Q598.5,930.5 591.5,927.5 Q630.5,890.5 649,847 Q667.5,803.5 673.5,757.5 Q679.5,711.5 679.5,671.5 z M129.5,498.5 L285.5,498.5 L285.5,550.5 L129.5,550.5 z M614.5,498.5 L839.5,498.5 L839.5,553.5 L614.5,553.5 z M128.5,616.5 L284.5,616.5 L284.5,667.5 L128.5,667.5 z M126.5,736.5 L286.5,736.5 L286.5,786.5 L126.5,786.5 z M390.5,610.5 L390.5,708.5 L550.5,708.5 L550.5,610.5 z M346.5,559.5 L595.5,559.5 L595.5,758.5 L346.5,758.5 z M443.5,483.5 L498.5,483.5 L498.5,587.5 L490.5,587.5 L490.5,739.5 L451.5,739.5 L451.5,587.5 L443.5,587.5 z M443.5,731.5 L498.5,731.5 L498.5,871.5 L443.5,877.5 z M326.5,864.5 Q375.5,859.5 441,850.5 Q506.5,841.5 578.5,832.5 L580.5,881.5 Q515.5,891.5 452.5,900.5 Q389.5,909.5 337.5,917.5 z M528.5,794.5 L570.5,780.5 Q588.5,808.5 603.5,842.5 Q618.5,876.5 623.5,901.5 L579.5,918.5 Q574.5,892.5 560.5,857.5 Q546.5,822.5 528.5,794.5 z M621.5,671.5 L790.5,671.5 L790.5,724.5 L621.5,724.5 z M808.5,498.5 L866.5,498.5 Q866.5,589.5 867.5,664 Q868.5,738.5 872,792 Q875.5,845.5 884,874.5 Q892.5,903.5 907.5,903.5 Q917.5,903.5 921.5,872.5 Q925.5,841.5 926.5,793.5 Q935.5,802.5 947,812 Q958.5,821.5 967.5,827.5 Q963.5,900.5 951,929.5 Q938.5,958.5 903.5,958.5 Q857.5,958.5 837.5,905.5 Q817.5,852.5 814,749.5 Q810.5,646.5 808.5,498.5 z" fill="#000000"/>
    <path d="M74.551,98.283 L924,98.283 L924,153.283 L74.551,153.283 z M461,37.283 L536,37.283 L536,129.283 L461,129.283 z M152.104,98.283 L219.104,98.283 L219.104,166.283 Q219.104,189.283 231.604,198.283 Q244.104,207.283 287.104,207.283 Q303.104,207.283 338.104,207.283 Q530,207.283 577,207.283 Q692.23,207.283 727.73,206.283 Q763.23,205.283 795.23,203.283 Q827.23,201.283 843.23,198.283 Q847.23,214.283 849.23,228.783 Q851.23,243.283 853.23,253.283 Q838.23,255.283 810.73,256.783 Q783.23,258.283 749.23,258.783 Q631,259.283 580,259.283 Q363.104,259.283 330.104,259.283 Q297.104,259.283 288.104,259.283 Q234.104,259.283 204.604,249.783 Q175.104,240.283 163.604,219.783 Q152.104,199.283 152.104,165.283 z" fill="#000000"/>
    <path d="M623.239,348.784 L623.239,406.623 L778.703,406.623 L778.703,348.784 z M425.312,348.784 L425.312,406.623 L561.239,406.623 L561.239,348.784 z M216.848,348.784 L216.848,406.623 L363.312,406.623 L363.312,348.784 z M149.848,303.793 L848.703,303.793 L848.703,450.676 L149.848,450.676 z" fill="#000000"/>
  </g>
</svg>
