<?xml version="1.0" encoding="UTF-8"?>
<!DOCTYPE svg PUBLIC "-//W3C//DTD SVG 1.1//EN" "http://www.w3.org/Graphics/SVG/1.1/DTD/svg11.dtd">
<svg version="1.1" xmlns="http://www.w3.org/2000/svg" xmlns:xlink="http://www.w3.org/1999/xlink" x="0" y="0" width="1000" height="1000" viewBox="0, 0, 1000, 1000">
  <g id="Background">
    <rect x="0" y="0" width="1000" height="1000" fill="#000000" fill-opacity="0"/>
  </g>
  <g id="レイヤー_1">
    <path d="M82.133,102.5 L359.825,102.5 L359.825,163.5 L82.133,163.5 z M322,39.5 L395,39.5 L395,228.5 L322,228.5 z M589,39.5 L662,39.5 L662,228.5 L589,228.5 z M233,380.5 L829,380.5 L829,425.5 L233,425.5 z M233,482.5 L829,482.5 L829,527.5 L233,527.5 z M468,312.5 L542,312.5 L542,598.5 L468,598.5 z M257,197.5 L325,218.5 Q299,265.5 263.5,311.5 Q228,357.5 188.5,397 Q149,436.5 109,466.5 Q104,460.5 94,451 Q84,441.5 73.5,431.5 Q63,421.5 55,416.5 Q115,376.5 168.5,319 Q222,261.5 257,197.5 z M500,198.5 L577,211.5 Q563,240.5 549,266 Q535,291.5 522,310.5 L455,297.5 Q466,275.5 479.5,247.5 Q493,219.5 500,198.5 z M86,687.5 L766,687.5 L766,740.5 L86,740.5 z M751,687.5 L765,687.5 L778,684.5 L820,713.5 Q767,775.5 685,819 Q603,862.5 502.5,891.5 Q402,920.5 292,937 Q182,953.5 73,960.5 Q70,947.5 62.5,929.5 Q55,911.5 48,899.5 Q152,894.5 257.5,881 Q363,867.5 459,843.5 Q555,819.5 631,783 Q707,746.5 751,696.5 z M298,729.5 Q343,768.5 413,798.5 Q483,828.5 570,849 Q657,869.5 754.5,882 Q852,894.5 952,899.5 Q942,910.5 931,928.5 Q920,946.5 914,959.5 Q813,952.5 715.5,937.5 Q618,922.5 529.5,898 Q441,873.5 367.5,839 Q294,804.5 242,757.5 z M252,274.5 L868,274.5 L868,325.5 L213,325.5 z M187,321.5 L257,321.5 L257,584.5 L906,584.5 L906,637.5 L187,637.5 z" fill="#000000"/>
    <path d="M623.555,102.245 L908.857,102.245 L908.857,163.245 L623.555,163.245 z" fill="#000000"/>
  </g>
</svg>
