<?xml version="1.0" encoding="UTF-8"?>
<!DOCTYPE svg PUBLIC "-//W3C//DTD SVG 1.1//EN" "http://www.w3.org/Graphics/SVG/1.1/DTD/svg11.dtd">
<svg version="1.1" xmlns="http://www.w3.org/2000/svg" xmlns:xlink="http://www.w3.org/1999/xlink" x="0" y="0" width="1000" height="1000" viewBox="0, 0, 1000, 1000">
  <g id="Background">
    <rect x="0" y="0" width="1000" height="1000" fill="#000000" fill-opacity="0"/>
  </g>
  <g id="レイヤー_1">
    <path d="M565.5,445.5 L892.5,445.5 L892.5,501.5 L565.5,501.5 z M565.5,590.5 L892.5,590.5 L892.5,649.5 L565.5,649.5 z M522.5,73.5 L877.5,73.5 L877.5,131.5 L522.5,131.5 z M42.5,252.5 L334.5,252.5 L334.5,320.5 L42.5,320.5 z M164.5,40.5 L233.5,40.5 L233.5,959.5 L164.5,959.5 z M162.5,295.5 L210.5,309.5 Q201.5,367.5 187,432 Q172.5,496.5 154,559.5 Q135.5,622.5 114.5,677.5 Q93.5,732.5 70.5,771.5 Q63.5,756.5 51.5,738 Q39.5,719.5 31.5,706.5 Q52.5,671.5 72.5,623 Q92.5,574.5 110,518.5 Q127.5,462.5 141,405.5 Q154.5,348.5 162.5,295.5 z M230.5,459.5 Q238.5,466.5 253.5,483.5 Q268.5,500.5 286,520.5 Q303.5,540.5 318,557 Q332.5,573.5 338.5,581.5 L296.5,644.5 Q289.5,630.5 276,610 Q262.5,589.5 247.5,568 Q232.5,546.5 218,527 Q203.5,507.5 194.5,496.5 z M532.5,298.5 L896.5,298.5 L896.5,357.5 L594.5,357.5 L594.5,818.5 L532.5,818.5 z M598.5,198.5 L641.5,160.5 Q671.5,176.5 704,198.5 Q736.5,220.5 765.5,243 Q794.5,265.5 811.5,284.5 L766.5,325.5 Q749.5,306.5 721.5,283.5 Q693.5,260.5 661,238 Q628.5,215.5 598.5,198.5 z M864.5,298.5 L928.5,298.5 L928.5,757.5 Q928.5,779.5 923.5,792.5 Q918.5,805.5 904.5,813.5 Q890.5,820.5 869.5,822 Q848.5,823.5 817.5,823.5 Q816.5,811.5 811.5,795.5 Q806.5,779.5 800.5,767.5 Q819.5,768.5 834.5,768.5 Q849.5,768.5 854.5,767.5 Q864.5,767.5 864.5,757.5 z M698.5,328.5 L756.5,328.5 L756.5,814.5 L698.5,814.5 z M858.5,73.5 L874.5,73.5 L887.5,69.5 L929.5,101.5 Q892.5,146.5 841,189 Q789.5,231.5 741.5,261.5 Q734.5,251.5 723,239.5 Q711.5,227.5 703.5,221.5 Q732.5,204.5 762,181 Q791.5,157.5 817,133 Q842.5,108.5 858.5,86.5 z" fill="#000000"/>
    <path d="M341.065,121.018 L399.065,93.018 Q421.065,121.018 441.565,153.018 Q462.065,185.018 478.565,216.018 Q495.065,247.018 502.065,272.018 L441.065,303.018 Q433.065,278.018 417.565,246.518 Q402.065,215.018 382.065,182.018 Q362.065,149.018 341.065,121.018 z M481.065,447.018 L481.065,796.018 L416.065,796.018 L416.065,510.018 L324.065,510.018 L324.065,447.018 z M481.065,764.018 Q506.065,817.018 553.065,849.018 Q600.065,881.018 667.065,884.018 Q694.065,885.018 733.565,885.518 Q773.065,886.018 816.065,885.518 Q859.065,885.018 899.565,883.518 Q940.065,882.018 971.065,880.018 Q967.065,888.018 962.565,900.018 Q958.065,912.018 954.565,925.018 Q951.065,938.018 950.065,948.018 Q921.065,949.018 884.065,950.018 Q847.065,951.018 807.065,951.518 Q767.065,952.018 729.565,951.518 Q692.065,951.018 664.065,950.018 Q588.065,946.018 536.065,912.518 Q484.065,879.018 450.065,823.018 Q420.065,857.018 389.065,891.518 Q358.065,926.018 324.065,961.018 L286.065,896.018 Q317.065,869.018 353.065,834.018 Q389.065,799.018 421.065,764.018 z" fill="#000000"/>
  </g>
</svg>
